<svg xmlns="http://www.w3.org/2000/svg" version="1.1" xmlns:xlink="http://www.w3.org/1999/xlink" xmlns:svgjs="http://svgjs.dev/svgjs" width="2000" height="2250" viewBox="0 0 2000 2250"><g transform="matrix(1,0,0,1,0,0)"><svg viewBox="0 0 320 360" data-background-color="#242424" preserveAspectRatio="xMidYMid meet" height="2250" width="2000" xmlns="http://www.w3.org/2000/svg" xmlns:xlink="http://www.w3.org/1999/xlink"><g id="tight-bounds" transform="matrix(1,0,0,1,0,0)"><svg viewBox="0 0 320 360" height="360" width="320"><g><svg></svg></g><g><svg viewBox="0 0 320 360" height="360" width="320"><g><path d="M160 340c88.258 0 160-71.742 160-160 0-88.258-71.742-160-160-160-88.258 0-160 71.742-160 160 0 88.258 71.742 160 160 160zM165.161 329.368v-10.323c72.671-2.684 131.2-61.213 133.884-133.884h10.323c-2.684 78.452-65.755 141.523-144.207 144.207zM165.161 30.632c78.452 2.684 141.523 65.755 144.207 144.207h-10.323c-2.684-72.671-61.213-131.2-133.884-133.884zM289.032 180c0 71.123-57.91 129.032-129.032 129.032-71.123 0-129.032-57.91-129.032-129.032 0-71.123 57.91-129.032 129.032-129.032 71.123 0 129.032 57.91 129.032 129.032zM154.839 30.632v10.323c-72.671 2.684-131.2 61.213-133.884 133.884h-10.323c2.684-78.452 65.755-141.523 144.207-144.207zM20.955 185.161c2.684 72.671 61.213 131.2 133.884 133.884v10.323c-78.452-2.684-141.523-65.755-144.207-144.207z" fill="#000000" fill-rule="nonzero" stroke="none" stroke-width="1" stroke-linecap="butt" stroke-linejoin="miter" stroke-miterlimit="10" stroke-dasharray="" stroke-dashoffset="0" font-family="none" font-weight="none" font-size="none" text-anchor="none" style="mix-blend-mode: normal" data-fill-palette-color="tertiary"></path></g><g transform="matrix(1,0,0,1,64,130.17301038062283)"><svg viewBox="0 0 192 99.65397923875433" height="99.65397923875433" width="192"><g><svg viewBox="0 0 192 99.65397923875433" height="99.65397923875433" width="192"><g><svg viewBox="0 0 192 99.65397923875433" height="99.65397923875433" width="192"><g><svg viewBox="0 0 192 99.65397923875433" height="99.65397923875433" width="192"><g id="textblocktransform"><svg viewBox="0 0 192 99.65397923875433" height="99.65397923875433" width="192" id="textblock"><g><svg viewBox="0 0 192 99.65397923875433" height="99.65397923875433" width="192"><g transform="matrix(1,0,0,1,0,0)"><svg width="192" viewBox="4.38 -31.25 60.199999999999996 31.25" height="99.65397923875433" data-palette-color="#777777"><path d="M14.62 0L4.38 0 4.38-31.25 14.62-31.25Q18.85-31.25 22-29.86 25.14-28.47 27.19-26.18 29.24-23.89 30.24-21.13 31.25-18.37 31.25-15.63L31.25-15.63Q31.25-12.88 30.24-10.12 29.24-7.36 27.19-5.07 25.14-2.78 22-1.39 18.85 0 14.62 0L14.62 0ZM8.33-27.71L8.33-3.54 14.2-3.54Q17.81-3.54 20.28-4.67 22.74-5.8 24.27-7.62 25.8-9.44 26.48-11.56 27.15-13.68 27.15-15.63L27.15-15.63Q27.15-17.57 26.48-19.69 25.8-21.81 24.27-23.63 22.74-25.45 20.28-26.58 17.81-27.71 14.2-27.71L14.2-27.71 8.33-27.71ZM47.95 0L37.71 0 37.71-31.25 47.95-31.25Q52.19-31.25 55.33-29.86 58.47-28.47 60.52-26.18 62.57-23.89 63.57-21.13 64.58-18.37 64.58-15.63L64.58-15.63Q64.58-12.88 63.57-10.12 62.57-7.36 60.52-5.07 58.47-2.78 55.33-1.39 52.19 0 47.95 0L47.95 0ZM41.66-27.71L41.66-3.54 47.53-3.54Q51.14-3.54 53.61-4.67 56.07-5.8 57.6-7.62 59.13-9.44 59.81-11.56 60.48-13.68 60.48-15.63L60.48-15.63Q60.48-17.57 59.81-19.69 59.13-21.81 57.6-23.63 56.07-25.45 53.61-26.58 51.14-27.71 47.53-27.71L47.53-27.71 41.66-27.71Z" opacity="1" transform="matrix(1,0,0,1,0,0)" fill="#000000" class="wordmark-text-0" data-fill-palette-color="primary" id="text-0"></path></svg></g></svg></g></svg></g></svg></g></svg></g></svg></g></svg></g></svg></g><defs></defs></svg><rect width="320" height="360" fill="none" stroke="none" visibility="hidden"></rect></g></svg></g></svg>