<?xml version="1.0" standalone="no"?>
<!DOCTYPE svg PUBLIC "-//W3C//DTD SVG 20010904//EN"
 "http://www.w3.org/TR/2001/REC-SVG-20010904/DTD/svg10.dtd">
<svg version="1.0" xmlns="http://www.w3.org/2000/svg"
 width="2250.000000pt" height="2250.000000pt" viewBox="0 0 2250.000000 2250.000000"
 preserveAspectRatio="xMidYMid meet">
<metadata>
Created by potrace 1.14, written by Peter Selinger 2001-2017
</metadata>
<g transform="translate(0.000000,2250.000000) scale(0.100000,-0.100000)"
fill="#000000" stroke="none">
<path d="M10879 21246 c-2 -2 -71 -7 -154 -11 -82 -3 -166 -8 -185 -9 -19 -2
-75 -7 -125 -10 -49 -4 -101 -9 -115 -11 -14 -2 -61 -7 -105 -11 -44 -3 -87
-8 -95 -9 -9 -2 -43 -6 -75 -10 -33 -4 -71 -8 -85 -10 -14 -2 -47 -7 -75 -11
-27 -3 -57 -7 -65 -9 -8 -2 -51 -8 -95 -15 -87 -12 -119 -18 -152 -24 -11 -3
-43 -8 -70 -12 -26 -5 -50 -9 -53 -9 -3 -1 -25 -5 -50 -10 -25 -5 -47 -9 -50
-10 -43 -10 -71 -16 -100 -20 -111 -19 -497 -113 -720 -176 -1061 -302 -2094
-796 -3005 -1438 -132 -93 -382 -279 -430 -320 -17 -14 -48 -39 -70 -56 -44
-34 -287 -236 -295 -244 -3 -4 -41 -38 -85 -76 -44 -38 -109 -97 -145 -130
-108 -99 -540 -534 -625 -629 -44 -49 -87 -97 -95 -106 -8 -8 -40 -45 -70 -80
-30 -36 -57 -67 -61 -70 -4 -4 -216 -264 -257 -315 -22 -27 -195 -259 -244
-326 -108 -148 -350 -512 -429 -647 -9 -15 -54 -93 -101 -173 -113 -192 -252
-454 -354 -664 -94 -197 -134 -282 -134 -289 0 -2 -16 -38 -35 -80 -90 -195
-239 -586 -333 -876 -79 -244 -192 -639 -208 -730 -3 -14 -9 -38 -14 -55 -8
-24 -36 -150 -65 -295 -28 -134 -61 -317 -81 -445 -2 -16 -6 -41 -9 -55 -2
-14 -7 -43 -10 -65 -3 -22 -7 -51 -10 -65 -2 -14 -7 -47 -10 -75 -6 -56 -15
-127 -20 -165 -2 -14 -7 -61 -11 -105 -3 -44 -8 -87 -9 -96 -2 -8 -6 -58 -10
-110 -4 -52 -8 -110 -10 -129 -26 -265 -26 -1184 0 -1420 2 -19 7 -78 10 -130
3 -52 8 -106 10 -120 2 -14 6 -54 10 -90 5 -61 11 -113 20 -170 2 -14 9 -68
15 -120 6 -52 13 -106 16 -120 7 -44 35 -214 40 -250 3 -19 15 -82 26 -140 11
-58 22 -116 24 -130 27 -146 151 -651 199 -810 164 -534 306 -920 495 -1335
147 -324 322 -656 559 -1057 71 -121 336 -521 428 -646 144 -197 424 -556 452
-582 3 -3 28 -32 56 -65 27 -33 54 -65 60 -71 5 -6 30 -34 55 -63 98 -114 224
-246 435 -456 274 -274 306 -304 570 -534 154 -134 441 -359 650 -511 134 -97
540 -370 550 -370 3 0 32 -17 63 -38 48 -32 110 -70 260 -157 165 -96 312
-173 567 -299 220 -108 276 -135 355 -169 19 -8 71 -31 115 -50 497 -219 1194
-444 1735 -562 63 -14 126 -28 140 -31 14 -3 34 -8 45 -10 11 -2 43 -8 70 -14
28 -6 61 -13 75 -15 42 -9 255 -45 286 -50 16 -2 76 -11 134 -20 102 -15 129
-19 235 -31 28 -3 57 -7 65 -9 8 -2 51 -7 95 -11 44 -3 94 -8 110 -9 17 -2 68
-6 115 -10 47 -4 102 -8 124 -10 142 -14 374 -20 721 -20 357 1 498 5 700 20
153 12 193 16 235 20 25 3 70 7 100 10 30 3 71 7 90 10 19 2 59 7 89 10 30 4
62 8 72 10 10 2 44 6 76 10 69 7 60 6 288 44 158 27 206 36 315 57 21 5 140
30 180 39 21 4 322 76 340 80 375 97 800 236 1180 386 96 39 189 76 205 83 17
8 84 37 150 66 137 59 583 277 695 340 41 23 104 58 140 78 273 151 723 437
956 607 234 172 518 393 619 484 23 20 67 59 100 86 206 175 645 603 841 819
49 55 97 107 106 117 20 21 257 304 305 364 17 22 52 65 76 95 257 322 574
792 803 1192 113 196 351 655 409 788 15 36 43 97 60 135 18 39 63 144 100
235 37 91 71 174 76 185 50 111 232 649 286 845 8 30 19 69 23 85 26 91 90
337 94 357 2 13 9 41 14 63 6 22 13 51 16 65 3 14 16 77 30 142 24 111 78 398
91 483 6 45 33 224 40 270 2 17 7 57 10 90 3 33 8 71 10 85 7 37 17 151 30
315 3 44 8 96 10 115 26 223 27 1127 1 1405 -2 17 -6 77 -10 135 -4 58 -9 116
-11 130 -2 14 -7 54 -10 90 -7 74 -14 133 -20 170 -2 14 -7 50 -10 80 -3 30
-8 66 -10 80 -2 14 -7 45 -10 70 -3 25 -8 56 -10 70 -3 14 -7 39 -9 55 -28
177 -85 473 -122 635 -14 58 -27 116 -30 130 -3 14 -16 68 -30 120 -14 52 -27
104 -29 115 -10 44 -70 249 -122 415 -116 370 -266 767 -404 1068 -16 35 -29
65 -29 67 0 2 -23 52 -52 112 -29 59 -53 110 -53 113 -3 15 -201 393 -272 519
-29 51 -53 95 -53 97 0 2 -13 23 -30 47 -16 25 -30 48 -30 51 0 4 -11 23 -24
44 -13 20 -61 98 -107 172 -90 146 -229 355 -324 488 -33 46 -67 93 -75 105
-82 120 -497 641 -539 677 -3 3 -21 23 -40 45 -115 135 -349 381 -529 558
-120 117 -190 182 -368 342 -600 541 -1389 1072 -2174 1464 -512 256 -1117
493 -1630 639 -19 6 -69 20 -110 32 -92 26 -376 100 -410 106 -14 3 -33 7 -42
10 -9 3 -25 6 -35 8 -10 2 -85 18 -168 35 -198 41 -243 50 -289 57 -21 3 -48
8 -60 10 -11 2 -66 11 -121 19 -55 9 -112 18 -127 20 -55 10 -84 14 -139 20
-31 3 -66 7 -77 10 -12 2 -52 7 -89 11 -37 3 -79 8 -93 9 -14 2 -65 7 -115 10
-49 4 -98 9 -108 11 -10 2 -64 6 -120 9 -56 3 -129 9 -162 11 -67 6 -911 15
-916 10z m47 -984 c1 -289 0 -322 -15 -323 -145 -6 -355 -19 -396 -24 -16 -2
-68 -7 -115 -10 -47 -3 -92 -8 -100 -10 -8 -2 -42 -7 -75 -10 -33 -3 -70 -7
-81 -9 -12 -2 -45 -7 -75 -11 -30 -3 -79 -10 -109 -15 -30 -5 -73 -12 -95 -15
-23 -3 -52 -7 -65 -10 -14 -3 -52 -10 -85 -15 -33 -6 -91 -17 -130 -25 -38 -8
-86 -17 -105 -20 -19 -3 -53 -10 -75 -16 -22 -5 -51 -12 -65 -15 -470 -94
-1233 -353 -1735 -589 -631 -296 -1112 -591 -1714 -1050 -41 -31 -360 -298
-421 -351 -249 -221 -586 -564 -795 -809 -33 -38 -63 -72 -66 -75 -9 -9 -173
-212 -245 -305 -153 -197 -337 -460 -480 -685 -49 -77 -124 -203 -124 -208 0
-2 -8 -16 -19 -30 -50 -72 -371 -681 -371 -705 0 -2 -23 -53 -51 -113 -147
-313 -327 -804 -434 -1189 -20 -71 -43 -151 -51 -177 -7 -25 -17 -64 -20 -85
-3 -21 -7 -40 -9 -43 -5 -8 -72 -304 -80 -350 -3 -19 -8 -42 -10 -50 -2 -8 -7
-31 -10 -50 -3 -19 -14 -82 -25 -140 -10 -58 -21 -127 -25 -153 -4 -27 -8 -59
-11 -70 -2 -12 -6 -42 -9 -67 -5 -46 -10 -84 -20 -155 -8 -67 -23 -209 -30
-290 -10 -123 -23 -338 -24 -392 l-1 -31 -323 1 -322 2 1 22 c1 12 4 87 8 165
8 168 9 181 32 423 4 49 10 105 19 175 3 19 7 58 10 85 3 28 8 61 10 75 2 14
11 75 20 135 18 124 81 472 95 525 5 19 11 46 14 60 2 14 7 36 10 50 3 14 8
36 10 50 7 41 102 405 141 540 175 604 481 1341 768 1853 15 26 38 66 51 90
185 331 423 696 655 1007 134 179 364 463 466 576 6 6 42 46 80 89 224 250
516 538 795 786 14 12 88 74 165 139 662 551 1361 990 2148 1348 87 40 164 72
171 72 7 0 16 4 21 9 25 24 522 210 785 294 276 88 704 204 850 231 14 2 94
18 179 36 85 18 168 34 185 36 17 2 42 6 56 9 52 11 199 33 335 51 22 3 51 7
65 9 142 21 449 48 680 61 58 3 106 7 107 7 1 1 19 2 40 2 l38 -1 1 -322z
m854 313 c139 -7 232 -14 405 -31 81 -7 190 -20 255 -29 19 -3 51 -7 70 -9 67
-9 135 -18 155 -22 11 -2 63 -11 115 -19 104 -16 130 -20 206 -36 28 -5 64
-12 80 -15 55 -10 309 -64 344 -74 19 -5 107 -28 195 -50 492 -125 1030 -316
1540 -548 121 -55 478 -234 565 -283 30 -17 100 -56 155 -87 234 -131 583
-354 820 -525 77 -56 145 -106 151 -112 6 -5 22 -17 34 -25 40 -26 330 -259
435 -348 315 -270 647 -593 895 -873 41 -46 77 -86 80 -89 15 -12 225 -267
311 -375 206 -261 363 -485 584 -830 63 -99 203 -337 284 -485 52 -94 246
-482 288 -575 109 -244 221 -518 288 -705 42 -117 137 -402 145 -435 5 -16 22
-75 38 -130 30 -98 127 -466 136 -515 2 -14 13 -65 25 -115 11 -49 22 -101 24
-115 3 -14 12 -63 21 -110 22 -110 43 -233 51 -290 3 -25 10 -70 15 -100 5
-30 12 -73 14 -95 3 -22 7 -56 10 -75 2 -19 7 -60 11 -90 3 -30 8 -71 10 -90
6 -49 16 -149 30 -320 2 -25 7 -103 10 -175 4 -71 8 -144 9 -162 3 -23 -1 -34
-13 -37 -9 -3 -154 -5 -323 -4 l-308 0 -1 37 c-3 81 -17 309 -24 371 -2 19 -6
69 -10 110 -6 73 -11 119 -20 190 -2 19 -7 53 -9 75 -12 97 -17 133 -26 185
-5 30 -12 73 -15 95 -3 23 -8 52 -10 65 -3 14 -8 39 -10 55 -18 104 -60 315
-81 403 -13 56 -26 113 -28 125 -11 49 -15 69 -21 87 -3 10 -7 27 -10 37 -4
21 -58 217 -100 358 -39 135 -148 455 -176 520 -4 11 -33 83 -62 160 -120 310
-363 822 -489 1030 -10 17 -21 37 -25 45 -4 8 -24 43 -45 78 -21 34 -38 64
-38 67 0 8 -214 346 -275 435 -253 369 -406 566 -725 934 -155 179 -525 547
-724 721 -38 33 -74 65 -80 70 -67 61 -274 230 -387 316 -120 93 -179 136
-299 220 -134 95 -378 256 -435 289 -16 10 -99 59 -183 109 -84 50 -155 91
-157 91 -2 0 -34 17 -72 39 -37 21 -151 80 -253 131 -102 50 -193 96 -203 101
-147 78 -649 280 -932 374 -265 88 -720 217 -820 232 -16 2 -37 6 -45 9 -15 5
-334 69 -393 79 -18 3 -43 7 -57 10 -35 6 -78 13 -125 20 -62 9 -118 17 -135
20 -8 2 -44 6 -80 10 -36 4 -73 9 -82 10 -9 2 -45 6 -80 10 -35 3 -79 8 -98
10 -19 2 -73 7 -120 10 -47 3 -107 8 -135 10 -27 3 -97 7 -154 10 -57 3 -107
7 -111 10 -8 5 -12 598 -4 625 4 17 -3 17 204 5z m-175 -1269 c160 -7 237 -12
325 -21 30 -3 82 -7 115 -10 33 -3 76 -8 95 -10 19 -3 76 -9 125 -15 241 -29
516 -78 768 -136 84 -20 163 -38 177 -41 177 -38 800 -237 965 -308 17 -7 62
-25 100 -40 714 -285 1530 -773 2106 -1260 19 -16 57 -48 84 -70 27 -22 69
-58 94 -80 232 -205 494 -465 691 -685 47 -52 87 -97 90 -100 3 -3 27 -32 55
-65 27 -33 57 -69 67 -80 9 -11 33 -40 53 -65 20 -25 46 -56 57 -68 123 -146
465 -642 610 -887 143 -241 315 -568 405 -770 17 -38 42 -95 56 -125 34 -77
116 -275 137 -335 10 -27 28 -75 40 -105 57 -147 188 -560 225 -710 2 -8 22
-89 44 -180 39 -161 44 -184 56 -245 3 -16 10 -50 15 -75 12 -56 47 -251 55
-305 3 -22 7 -53 10 -70 5 -30 7 -45 25 -175 5 -36 12 -96 15 -135 4 -38 8
-81 10 -95 9 -59 20 -213 31 -420 7 -148 7 -615 0 -745 -12 -200 -17 -271 -21
-305 -2 -19 -7 -69 -11 -110 -15 -164 -22 -225 -55 -435 -31 -203 -37 -241
-44 -265 -3 -8 -7 -33 -10 -55 -8 -52 -60 -294 -79 -365 -8 -30 -29 -109 -47
-175 -235 -894 -659 -1797 -1203 -2560 -318 -446 -618 -794 -1013 -1175 -65
-63 -139 -133 -164 -155 -116 -104 -254 -222 -351 -300 -53 -43 -246 -193
-265 -205 -12 -8 -66 -47 -120 -86 -389 -282 -948 -604 -1363 -786 -19 -9 -62
-28 -94 -43 -199 -89 -699 -275 -836 -311 -8 -2 -100 -28 -205 -58 -165 -47
-396 -105 -475 -120 -14 -2 -81 -16 -150 -30 -69 -14 -156 -30 -195 -36 -120
-19 -129 -20 -155 -25 -14 -2 -45 -7 -70 -10 -25 -3 -76 -10 -115 -15 -73 -10
-135 -17 -220 -25 -27 -2 -72 -6 -100 -9 -27 -2 -88 -7 -135 -10 -47 -3 -123
-8 -170 -12 -107 -7 -666 -7 -780 0 -150 9 -264 17 -305 21 -71 7 -159 16
-190 20 -16 2 -61 6 -100 10 -38 3 -77 8 -85 11 -8 2 -35 6 -60 9 -66 8 -398
64 -450 76 -25 6 -56 13 -70 15 -14 3 -45 10 -70 15 -53 12 -78 18 -106 23
-57 11 -395 102 -509 137 -213 66 -454 150 -600 209 -418 167 -741 323 -1080
520 -49 29 -103 60 -120 70 -324 187 -824 550 -1150 835 -275 240 -587 553
-790 790 -33 39 -62 72 -65 75 -24 21 -296 364 -340 426 -8 12 -47 66 -86 120
-165 231 -338 501 -459 719 -324 582 -553 1130 -730 1745 -54 188 -147 578
-160 670 -4 24 -8 47 -10 50 -3 5 -10 47 -41 235 -3 17 -7 41 -9 55 -2 14 -6
45 -9 70 -4 25 -9 63 -12 85 -3 22 -7 51 -9 65 -5 35 -16 137 -20 185 -2 22
-6 69 -10 105 -32 351 -36 896 -10 1255 13 164 16 204 29 320 3 22 8 65 11 95
3 30 11 84 16 120 6 36 12 83 15 105 3 22 9 63 14 90 6 28 12 66 14 85 3 19
10 60 16 90 6 30 13 69 16 85 3 17 10 50 15 75 6 25 13 56 15 70 20 104 84
354 153 597 81 283 249 729 397 1053 45 100 202 414 242 485 16 28 46 82 67
120 106 193 319 525 473 740 70 97 243 324 264 346 7 8 39 46 70 85 31 39 62
77 70 85 7 8 40 46 73 84 33 39 78 90 101 115 23 25 56 61 74 80 168 183 467
469 680 650 36 30 67 57 70 60 15 17 264 211 381 297 453 336 1058 685 1549
896 19 8 51 22 70 30 242 105 611 237 907 322 143 42 396 108 453 119 14 2 69
14 124 26 119 26 97 22 281 54 141 24 169 28 263 41 20 3 48 7 62 10 27 4 83
11 175 20 33 3 74 8 90 10 31 4 153 14 239 20 28 2 125 7 216 10 91 4 166 8
167 8 4 4 395 -1 528 -7z m-9044 -8405 c3 -92 17 -323 24 -391 7 -72 17 -176
20 -200 1 -14 6 -52 9 -85 4 -33 9 -71 11 -85 2 -14 6 -47 10 -75 40 -330 145
-825 255 -1210 46 -162 146 -474 170 -530 5 -11 32 -83 60 -160 52 -139 168
-415 231 -550 18 -38 33 -72 33 -75 4 -16 188 -371 256 -495 132 -238 225
-390 386 -629 123 -184 114 -172 254 -361 131 -176 364 -462 495 -604 22 -25
65 -72 95 -105 86 -95 404 -411 515 -513 168 -153 335 -292 595 -496 177 -139
505 -363 745 -510 158 -97 149 -92 430 -247 99 -55 417 -211 565 -278 215 -97
559 -229 810 -312 130 -42 510 -155 560 -165 8 -2 74 -17 145 -34 160 -38 249
-58 295 -65 19 -3 46 -8 60 -11 34 -8 228 -43 265 -49 17 -2 50 -7 75 -11 25
-4 59 -9 75 -11 51 -9 88 -14 140 -19 28 -3 61 -7 75 -10 39 -6 118 -14 200
-21 41 -4 89 -8 105 -10 17 -1 80 -6 140 -9 61 -4 130 -8 155 -10 25 -2 59 -4
76 -4 l31 -1 0 -320 c1 -335 2 -324 -37 -322 -204 7 -393 20 -555 37 -22 3
-70 7 -107 10 -37 3 -75 7 -85 9 -10 2 -43 7 -74 10 -31 4 -66 8 -76 10 -11 3
-44 7 -74 11 -30 3 -92 13 -139 20 -47 8 -102 17 -124 21 -21 3 -48 8 -60 10
-11 2 -70 13 -131 25 -403 76 -879 204 -1275 343 -588 207 -1025 405 -1580
718 -213 120 -509 309 -745 476 -208 148 -527 395 -650 503 -16 14 -88 78
-160 140 -184 162 -392 363 -585 566 -142 150 -165 175 -301 334 -942 1093
-1623 2402 -1974 3789 -15 58 -29 113 -31 123 -2 10 -5 26 -8 35 -3 9 -7 28
-10 42 -3 14 -7 34 -10 45 -23 101 -101 507 -111 580 -3 22 -8 56 -11 75 -3
19 -8 48 -10 63 -2 15 -6 44 -9 65 -3 20 -7 57 -10 82 -3 25 -6 54 -9 65 -2
11 -7 58 -12 105 -4 47 -8 87 -9 90 -1 3 -5 50 -9 105 -4 55 -9 116 -11 135
-2 19 -7 94 -11 165 -3 72 -7 144 -8 160 -2 17 -1 33 1 36 1 4 147 7 323 7
l320 0 1 -27z m18023 1 c-1 -15 -5 -90 -9 -167 -12 -224 -18 -312 -35 -460 -5
-44 -12 -105 -15 -135 -8 -73 -12 -106 -29 -215 -2 -16 -8 -52 -11 -80 -12
-83 -13 -88 -24 -150 -6 -33 -13 -74 -16 -91 -2 -17 -19 -101 -35 -185 -17
-85 -33 -165 -36 -179 -3 -14 -7 -33 -10 -42 -3 -10 -7 -30 -10 -45 -30 -175
-239 -878 -327 -1103 -4 -8 -16 -42 -28 -75 -11 -33 -27 -74 -35 -92 -8 -17
-14 -34 -14 -37 0 -11 -125 -305 -197 -466 -78 -173 -222 -460 -312 -620 -35
-63 -75 -135 -89 -160 -80 -144 -147 -251 -316 -505 -160 -242 -188 -282 -330
-470 -115 -153 -379 -479 -426 -525 -3 -3 -27 -30 -54 -60 -249 -278 -624
-651 -826 -820 -14 -11 -36 -31 -50 -43 -14 -13 -79 -68 -145 -123 -322 -267
-696 -536 -1025 -738 -69 -42 -132 -81 -140 -86 -19 -12 -255 -147 -340 -194
-120 -67 -564 -284 -715 -349 -205 -88 -423 -175 -585 -232 -74 -26 -144 -51
-155 -55 -45 -19 -565 -175 -614 -185 -9 -2 -54 -13 -101 -25 -47 -12 -92 -23
-100 -25 -8 -2 -87 -19 -175 -38 -162 -36 -241 -52 -305 -62 -19 -4 -53 -10
-75 -15 -22 -5 -62 -12 -90 -16 -27 -3 -59 -8 -70 -10 -10 -2 -37 -6 -60 -9
-22 -3 -51 -8 -65 -10 -28 -6 -98 -15 -231 -30 -23 -2 -58 -7 -78 -9 -20 -3
-63 -7 -96 -10 -33 -3 -89 -8 -125 -12 -36 -4 -83 -8 -105 -9 -68 -5 -314 -18
-348 -19 l-32 -1 -1 323 -2 322 37 1 c20 1 52 2 71 4 19 1 91 5 160 9 69 4
136 9 150 11 14 2 63 7 109 10 47 4 93 9 104 11 11 2 44 6 73 9 56 5 383 52
424 60 14 3 41 8 60 11 80 13 441 87 515 106 44 11 89 22 100 24 11 2 61 15
110 29 50 14 100 28 112 30 79 18 574 179 658 214 11 4 92 36 180 70 88 35
174 69 191 76 16 8 66 30 110 48 647 280 1339 697 1914 1155 122 97 260 212
280 232 3 3 41 37 85 75 173 151 523 496 660 650 39 43 75 83 80 89 158 173
461 555 607 766 24 36 70 102 101 147 31 45 57 86 57 92 0 5 4 11 8 13 4 2 39
53 76 113 38 61 80 128 94 150 14 22 33 52 44 67 10 15 18 30 18 33 0 4 23 44
50 91 28 47 50 86 50 88 0 2 16 33 36 68 51 88 212 411 272 543 258 570 450
1149 581 1755 40 187 46 213 56 285 4 22 13 72 20 110 8 39 17 90 20 115 6 49
16 116 20 141 2 8 6 40 9 70 3 30 8 70 10 89 10 76 16 138 21 195 3 33 8 78
10 100 7 72 22 319 24 391 1 21 2 21 325 22 l323 0 -3 -26z"/>
<path d="M5259 14359 c-5 -3 -8 -1264 -7 -3115 l3 -3109 1095 1 c985 0 1236 4
1365 18 22 3 65 8 95 11 185 21 263 35 466 84 275 67 531 170 809 326 61 34
239 149 280 182 17 13 35 27 40 31 114 85 158 124 305 272 182 183 334 380
464 603 65 111 186 357 186 379 0 8 4 18 8 24 5 5 19 38 31 74 13 36 27 74 31
85 14 33 52 157 76 250 11 42 45 201 49 232 3 21 8 43 10 50 2 6 7 38 11 70 3
32 8 60 9 63 8 14 19 229 19 365 -1 139 -10 310 -19 345 -2 8 -7 42 -10 75 -4
33 -18 114 -31 180 -181 892 -701 1631 -1451 2064 -313 180 -680 318 -988 371
-27 5 -59 11 -70 13 -11 3 -42 8 -68 11 -27 4 -56 9 -65 11 -10 1 -48 6 -87
10 -38 4 -83 9 -100 11 -129 13 -410 17 -1358 18 -599 1 -1093 -2 -1098 -5z
m2281 -712 c14 -2 59 -8 100 -12 41 -4 82 -8 90 -10 8 -2 35 -6 60 -9 103 -15
329 -70 438 -107 233 -79 525 -242 717 -399 274 -224 513 -551 653 -895 64
-159 138 -426 157 -570 4 -27 9 -52 10 -55 2 -3 7 -46 12 -95 14 -153 7 -505
-12 -575 -2 -8 -7 -40 -10 -70 -4 -30 -9 -58 -11 -61 -2 -3 -6 -21 -9 -40 -44
-248 -155 -544 -286 -763 -68 -112 -67 -111 -129 -195 -220 -304 -486 -523
-853 -700 -199 -96 -420 -165 -647 -201 -36 -6 -76 -13 -89 -15 -13 -2 -58 -7
-100 -11 -42 -3 -85 -9 -96 -12 -11 -3 -352 -7 -757 -9 l-738 -4 0 23 c-1 30
-1 4699 0 4755 l0 43 738 -4 c405 -3 748 -6 762 -9z"/>
<path d="M11901 14360 c-6 -4 -8 -6201 -3 -6220 3 -7 2198 -4 2322 4 58 3 123
8 145 11 22 3 63 7 90 10 72 8 318 46 326 50 3 2 21 7 40 10 62 11 260 66 360
101 209 73 439 182 633 302 90 55 266 178 303 210 10 9 54 49 98 87 114 101
203 193 300 310 28 33 52 62 55 65 29 28 230 321 230 336 0 4 6 15 14 23 54
61 225 449 286 645 32 107 87 324 95 381 3 22 8 45 10 52 2 6 7 38 11 70 3 32
8 60 9 63 9 16 20 225 20 385 0 260 -13 384 -70 665 -13 62 -79 290 -110 380
-171 490 -464 930 -850 1276 -440 394 -1055 669 -1675 749 -129 17 -195 23
-315 31 -114 8 -2313 12 -2324 4z m2294 -714 c28 -3 70 -8 95 -11 25 -4 57 -8
70 -9 14 -2 45 -6 70 -10 25 -4 57 -10 73 -12 175 -28 392 -95 569 -175 121
-56 349 -186 402 -230 6 -5 46 -37 89 -70 330 -256 616 -680 746 -1104 33
-110 86 -342 96 -420 3 -27 10 -77 14 -110 12 -78 11 -399 0 -495 -104 -871
-547 -1529 -1270 -1891 -203 -101 -460 -186 -654 -214 -22 -4 -51 -8 -65 -10
-36 -7 -167 -24 -225 -31 -27 -3 -382 -8 -787 -11 l-737 -5 0 2411 0 2410 732
-3 c403 -2 755 -6 782 -10z"/>
</g>
</svg>
